<?xml version="1.0" encoding="utf-8"?>
<!-- Generator: Adobe Illustrator 27.5.0, SVG Export Plug-In . SVG Version: 6.00 Build 0)  -->
<svg version="1.1" xmlns="http://www.w3.org/2000/svg" xmlns:xlink="http://www.w3.org/1999/xlink" x="0px" y="0px"
	 viewBox="0 0 28.3 28.3" style="enable-background:new 0 0 28.3 28.3;" xml:space="preserve">
<style type="text/css">
	.st0filter{display:none;}
	.st1filter{display:inline;}
	.st2filter{display:inline;fill:#1D1D1B;}
	.st3filter{fill:none;stroke:#1D1D1B;stroke-width:0.75;stroke-miterlimit:10;}
	.st4filter{fill:none;stroke:#1D1D1B;stroke-width:0.55;stroke-miterlimit:10;}
	.st5filter{fill:#FFFFFF;stroke:#1D1D1B;stroke-width:0.55;stroke-miterlimit:10;}
</style>
<g id="Ebene_2" class="st0filter">
	<g id="of0N4N.tif" class="st1filter">
		
			<image style="overflow:visible;" width="42" height="31" id="Layer_0_00000147900737044403381990000006646543667328851096_" xlink:href="AC38E7E83C9A7338.png"  transform="matrix(0.7023 0 0 0.7023 -0.5719 2.0926)">
		</image>
	</g>
</g>
<g id="Ebene_1">
	<g id="Ebene_1_00000032643367200088823770000015364641583177854107_" class="st0filter">
		
		<image style="display:inline;overflow:visible;enable-background:new    ;" width="922" height="180" xlink:href="../../../../../../private/var/folders/tf/bsct8sbd12936hjd4qbt9tvh0000gn/T/TemporaryItems/NSIRD_screencaptureui_h6T7zc/Bildschirmfoto 2023-05-21 um 11.03.51.png"  transform="matrix(0.2988 0 0 0.2988 -18.9543 -13.6385)">
		</image>
	</g>
	<g id="Ebene_2_00000000911966883495044790000007211877891964789668_" class="st0filter">
		<path class="st2filter" d="M3.3,24.9h22.5c0,0-0.7-5.5-6.8-6.6c-0.7,0.2-4.7,2.2-8.4,0C9.4,18.6,4,20,3.3,24.9z"/>
		<circle class="st2filter" cx="14.6" cy="10.6" r="6.8"/>
	</g>
	<g id="Ebene_3" class="st0filter">
		<g class="st1filter">
			<g>
				<polygon class="st3filter" points="27.4,2.5 27.4,23 13.9,25.8 1.4,23 1.4,2.5 13.9,5.1 				"/>
				<line class="st3filter" x1="13.9" y1="5.1" x2="13.9" y2="25.4"/>
			</g>
			<line class="st3filter" x1="15.4" y1="7.9" x2="25.9" y2="5.7"/>
			<line class="st3filter" x1="15.3" y1="10.1" x2="25.9" y2="8"/>
			<line class="st3filter" x1="15.3" y1="12.4" x2="25.9" y2="10.2"/>
			<line class="st3filter" x1="15.3" y1="14.6" x2="25.9" y2="12.5"/>
			<line class="st3filter" x1="15.3" y1="16.9" x2="25.9" y2="14.7"/>
		</g>
	</g>
	<line class="st4filter" x1="0" y1="5.7" x2="28.3" y2="5.7"/>
	<circle class="st5filter" cx="6.5" cy="5.8" r="2.8"/>
	<line class="st4filter" x1="0" y1="20" x2="28.3" y2="20"/>
	<circle class="st5filter" cx="5.8" cy="20" r="2.8"/>
	<line class="st4filter" x1="28.3" y1="12.7" x2="0" y2="12.7"/>
	<circle class="st5filter" cx="20.3" cy="12.8" r="2.8"/>
</g>
</svg>
