<?xml version="1.0" encoding="utf-8"?>
<!-- Generator: Adobe Illustrator 27.5.0, SVG Export Plug-In . SVG Version: 6.00 Build 0)  -->
<svg version="1.1" xmlns="http://www.w3.org/2000/svg" xmlns:xlink="http://www.w3.org/1999/xlink" x="0px" y="0px"
	 viewBox="0 0 29.4 29.4" style="enable-background:new 0 0 29.4 29.4;" xml:space="preserve">
<style type="text/css">
	.st0{display:none;}
	.st1{display:inline;}
	.st2{display:inline;fill:none;stroke:#000000;stroke-miterlimit:10;}
	.st3{fill:#1D1D1B;}
	.st4{display:inline;fill:#1D1D1B;}
	.st5{fill:none;stroke:#1D1D1B;stroke-width:0.75;stroke-miterlimit:10;}
	.st6{fill:none;stroke:#1D1D1B;stroke-width:0.25;stroke-miterlimit:10;}
</style>
<g id="Ebene_1" class="st0">
	
		<image style="display:inline;overflow:visible;" width="922" height="180" xlink:href="../../../../../../private/var/folders/tf/bsct8sbd12936hjd4qbt9tvh0000gn/T/TemporaryItems/NSIRD_screencaptureui_h6T7zc/Bildschirmfoto 2023-05-21 um 11.03.51.png"  transform="matrix(0.2988 0 0 0.2988 -36.2543 49.3178)">
	</image>
	<g id="_x30_I38ba.tif" class="st1">
		
			<image style="overflow:visible;" width="448" height="406" id="Layer_0" xlink:href="90E3FF03A04E8181.png"  transform="matrix(5.750520e-02 0 0 5.750520e-02 2.0939 2.6618)">
		</image>
	</g>
</g>
<g id="Ebene_4" class="st0">
	<polygon class="st2" points="4.3,3 22.7,3 22.7,26.4 13.6,17 4.3,26.4 	"/>
</g>
<g id="Ebene_5" class="st0">
	<g class="st1">
		<path class="st3" d="M14.9,25.8c0,0-10.9-9.8-12.2-13.8c-0.4-1.2-2-5.7,3.3-8.7c0.7-0.3,4.3-2,9.1,2.3C15.2,7,14.9,25.8,14.9,25.8
			z"/>
		<path class="st3" d="M14.9,25.8c0,0,11-9.8,12.4-13.8c0.4-1.2,2-5.7-3.3-8.7c-0.7-0.3-4.3-2-9.1,2.3C14.9,7,14.9,25.8,14.9,25.8z"
			/>
	</g>
</g>
<g id="Ebene_2" class="st0">
	<path class="st4" d="M3.8,25.4h22.5c0,0-0.7-5.5-6.8-6.6c-0.7,0.2-4.7,2.2-8.4,0C10,19.1,4.5,20.6,3.8,25.4z"/>
	<circle class="st4" cx="15.2" cy="11.2" r="6.8"/>
</g>
<g id="Ebene_3" class="st0">
	<g class="st1">
		<g>
			<polygon class="st5" points="27.9,3 27.9,23.6 14.4,26.3 1.9,23.6 1.9,3 14.4,5.7 			"/>
			<line class="st5" x1="14.4" y1="5.7" x2="14.4" y2="26"/>
		</g>
		<line class="st5" x1="15.9" y1="8.4" x2="26.4" y2="6.3"/>
		<line class="st5" x1="15.9" y1="10.6" x2="26.4" y2="8.5"/>
		<line class="st5" x1="15.9" y1="12.9" x2="26.4" y2="10.8"/>
		<line class="st5" x1="15.9" y1="15.1" x2="26.4" y2="13"/>
		<line class="st5" x1="15.9" y1="17.4" x2="26.4" y2="15.3"/>
	</g>
</g>
<g id="Ebene_6">
	<polygon class="st3" points="29.1,14.8 29.1,14.6 29,14.6 29,14.7 	"/>
	<g>
		<g>
			<g>
				<line class="st6" x1="9.9" y1="14.6" x2="14.7" y2="9.9"/>
				<line class="st6" x1="14.7" y1="19.3" x2="9.9" y2="14.6"/>
				<line class="st6" x1="19.3" y1="14.6" x2="14.7" y2="19.3"/>
				<line class="st6" x1="14.7" y1="9.9" x2="19.3" y2="14.6"/>
			</g>
			<g>
				<line class="st6" x1="4.6" y1="14.7" x2="14.7" y2="4.7"/>
				<line class="st6" x1="14.7" y1="24.5" x2="4.6" y2="14.7"/>
				<line class="st6" x1="24.4" y1="14.7" x2="14.7" y2="24.5"/>
				<line class="st6" x1="14.7" y1="4.7" x2="24.4" y2="14.7"/>
			</g>
			<g>
				<line class="st6" x1="0.6" y1="14.7" x2="14.7" y2="0.5"/>
				<line class="st6" x1="14.7" y1="28.8" x2="0.6" y2="14.7"/>
				<line class="st6" x1="29" y1="14.7" x2="14.7" y2="28.8"/>
				<line class="st6" x1="14.7" y1="0.5" x2="29" y2="14.7"/>
			</g>
		</g>
		<polygon class="st3" points="19.4,14.7 19.4,14.5 19.3,14.6 19.3,14.7 		"/>
		<polygon class="st3" points="9.8,14.5 9.8,14.7 9.9,14.7 9.9,14.6 		"/>
		<polygon class="st3" points="4.5,14.6 4.5,14.7 4.6,14.7 4.6,14.6 		"/>
		<polygon class="st3" points="0.5,14.6 0.5,14.8 0.6,14.7 0.6,14.7 		"/>
		<polygon class="st3" points="24.5,14.7 24.5,14.6 24.4,14.6 24.4,14.7 		"/>
		<polygon class="st3" points="14.8,9.8 14.6,9.8 14.7,9.9 14.8,9.9 		"/>
		<polygon class="st3" points="14.8,4.6 14.6,4.6 14.7,4.7 14.8,4.7 		"/>
		<polygon class="st3" points="14.8,0.4 14.6,0.4 14.7,0.6 14.8,0.6 		"/>
		<polygon class="st3" points="14.7,19.4 14.8,19.4 14.8,19.3 14.7,19.3 		"/>
		<polygon class="st3" points="14.6,24.6 14.8,24.6 14.8,24.5 14.7,24.5 		"/>
		<polygon class="st3" points="14.6,28.9 14.8,28.9 14.8,28.8 14.7,28.8 		"/>
	</g>
</g>
</svg>
