<?xml version="1.0" encoding="utf-8"?>
<!-- Generator: Adobe Illustrator 27.5.0, SVG Export Plug-In . SVG Version: 6.00 Build 0)  -->
<svg version="1.1" id="Ebene_1" xmlns="http://www.w3.org/2000/svg" xmlns:xlink="http://www.w3.org/1999/xlink" x="0px" y="0px"
	 viewBox="0 0 28.3 28.3" style="enable-background:new 0 0 28.3 28.3;" xml:space="preserve">
<style type="text/css">
	.st0{display:none;}
	.st1{display:inline;fill:#1D1D1B;}
	.st2{fill:none;stroke:#781449;stroke-width:0.75;stroke-miterlimit:10;}
	.st3{fill:none;stroke:#781449;stroke-width:0.5;stroke-miterlimit:10;}
	.st4{fill:#781449;}
</style>
<g id="Ebene_1_00000116235384545772925220000002419875915199044539_" class="st0">
	
		<image style="display:inline;overflow:visible;enable-background:new    ;" width="922" height="180" xlink:href="../../../../../../private/var/folders/tf/bsct8sbd12936hjd4qbt9tvh0000gn/T/TemporaryItems/NSIRD_screencaptureui_h6T7zc/Bildschirmfoto 2023-05-21 um 11.03.51.png"  transform="matrix(0.2988 0 0 0.2988 -118.7073 -15.3584)">
	</image>
</g>
<g id="Ebene_2_00000093893432380194601740000012308284491530160047_" class="st0">
	<path class="st1" d="M3.3,24.9h22.5c0,0-0.7-5.5-6.8-6.6c-0.7,0.2-4.7,2.2-8.4,0C9.4,18.6,4,20,3.3,24.9z"/>
	<circle class="st1" cx="14.6" cy="10.6" r="6.8"/>
</g>
<g id="Ebene_3">
	<g>
		<g>
			<path class="st2" d="M27.4,2.7v20c0,0.2-0.1,0.3-0.3,0.3L14,25.7c-0.1,0-0.2,0-0.3,0L1.6,23.1c-0.1,0-0.2-0.2-0.2-0.3V2.7
				c0-0.1,0.1-0.2,0.2-0.2L13.8,5h0.1l13.2-2.5C27.3,2.5,27.4,2.6,27.4,2.7z"/>
			<line class="st2" x1="13.9" y1="5.1" x2="13.9" y2="25.4"/>
		</g>
		<line class="st3" x1="15.4" y1="7.9" x2="25.9" y2="5.7"/>
		<line class="st3" x1="15.3" y1="10.1" x2="25.9" y2="8"/>
		<line class="st3" x1="15.3" y1="12.4" x2="25.9" y2="10.2"/>
		<line class="st3" x1="15.3" y1="14.6" x2="25.9" y2="12.5"/>
		<line class="st3" x1="15.3" y1="16.9" x2="25.9" y2="14.7"/>
	</g>
</g>
<polygon class="st4" points="13.7,25.7 1.4,22.8 1.4,2.7 13.8,5 "/>
</svg>
