<?xml version="1.0" encoding="utf-8"?>
<!-- Generator: Adobe Illustrator 27.5.0, SVG Export Plug-In . SVG Version: 6.00 Build 0)  -->
<svg version="1.1" id="Ebene_1" xmlns="http://www.w3.org/2000/svg" xmlns:xlink="http://www.w3.org/1999/xlink" x="0px" y="0px"
	 viewBox="0 0 28.3 28.3" style="enable-background:new 0 0 28.3 28.3;" xml:space="preserve">
<style type="text/css">
	.st0{display:none;}
	.st1{fill:#660F0F;}
	.st2{display:inline;fill:#1D1D1B;}
	.st3{display:inline;}
	.st4{fill:none;stroke:#1D1D1B;stroke-width:0.75;stroke-miterlimit:10;}
</style>
<g id="Ebene_1_00000032643367200088823770000015364641583177854107_" class="st0">
</g>
<g id="Ebene_4">
	<path class="st1" d="M5.8,3.3h17.6c0.2,0,0.4,0.2,0.4,0.4v22c0,0.4-0.5,0.6-0.7,0.3l-8.2-8.4c-0.2-0.2-0.4-0.2-0.6,0L6,26
		c-0.3,0.3-0.7,0.1-0.7-0.3l0.1-22C5.4,3.5,5.6,3.3,5.8,3.3z"/>
</g>
<g id="Ebene_2_00000000911966883495044790000007211877891964789668_" class="st0">
	<path class="st2" d="M3.3,24.9h22.5c0,0-0.7-5.5-6.8-6.6c-0.7,0.2-4.7,2.2-8.4,0C9.4,18.6,4,20,3.3,24.9z"/>
	<circle class="st2" cx="14.6" cy="10.6" r="6.8"/>
</g>
<g id="Ebene_3" class="st0">
	<g class="st3">
		<g>
			<polygon class="st4" points="27.4,2.5 27.4,23 13.9,25.8 1.4,23 1.4,2.5 13.9,5.1 			"/>
			<line class="st4" x1="13.9" y1="5.1" x2="13.9" y2="25.4"/>
		</g>
		<line class="st4" x1="15.4" y1="7.9" x2="25.9" y2="5.7"/>
		<line class="st4" x1="15.3" y1="10.1" x2="25.9" y2="8"/>
		<line class="st4" x1="15.3" y1="12.4" x2="25.9" y2="10.2"/>
		<line class="st4" x1="15.3" y1="14.6" x2="25.9" y2="12.5"/>
		<line class="st4" x1="15.3" y1="16.9" x2="25.9" y2="14.7"/>
	</g>
</g>
</svg>
