<?xml version="1.0" encoding="utf-8"?>
<!-- Generator: Adobe Illustrator 27.5.0, SVG Export Plug-In . SVG Version: 6.00 Build 0)  -->
<svg version="1.1" id="Ebene_1" xmlns="http://www.w3.org/2000/svg" xmlns:xlink="http://www.w3.org/1999/xlink" x="0px" y="0px"
	 viewBox="0 0 28.3 28.3" style="enable-background:new 0 0 28.3 28.3;" xml:space="preserve">
<style type="text/css">
	.st0ppp{display:none;}
	.st1ppp{fill:#781449;}
	.st2ppp{display:inline;fill:#1D1D1B;}
	.st3ppp{display:inline;}
	.st4ppp{fill:none;stroke:#1D1D1B;stroke-width:0.75;stroke-miterlimit:10;}
</style>
<g id="Ebene_1_00000032643367200088823770000015364641583177854107_" class="st0ppp">
	
		<image style="display:inline;overflow:visible;enable-background:new    ;" width="922" height="180" xlink:href="../../../../../../private/var/folders/tf/bsct8sbd12936hjd4qbt9tvh0000gn/T/TemporaryItems/NSIRD_screencaptureui_h6T7zc/Bildschirmfoto 2023-05-21 um 11.03.51.png"  transform="matrix(0.2988 0 0 0.2988 -18.9543 -13.6385)">
	</image>
</g>
<g id="Ebene_4">
	<path class="st1ppp" d="M4.2,2.5h17.6c0.2,0,0.4,0.2,0.4,0.4v22c0,0.4-0.5,0.6-0.7,0.3l-8.2-8.4c-0.2-0.2-0.4-0.2-0.6,0l-8.3,8.4
		c-0.3,0.3-0.7,0.1-0.7-0.3l0.1-22C3.8,2.7,4,2.5,4.2,2.5z"/>
</g>
<g id="Ebene_2_00000000911966883495044790000007211877891964789668_" class="st0ppp">
	<path class="st2ppp" d="M3.3,24.9h22.5c0,0-0.7-5.5-6.8-6.6c-0.7,0.2-4.7,2.2-8.4,0C9.4,18.6,4,20,3.3,24.9z"/>
	<circle class="st2ppp" cx="14.6" cy="10.6" r="6.8"/>
</g>
<g id="Ebene_3" class="st0ppp">
	<g class="st3ppp">
		<g>
			<polygon class="st4ppp" points="27.4,2.5 27.4,23 13.9,25.8 1.4,23 1.4,2.5 13.9,5.1 			"/>
			<line class="st4ppp" x1="13.9" y1="5.1" x2="13.9" y2="25.4"/>
		</g>
		<line class="st4ppp" x1="15.4" y1="7.9" x2="25.9" y2="5.7"/>
		<line class="st4ppp" x1="15.3" y1="10.1" x2="25.9" y2="8"/>
		<line class="st4ppp" x1="15.3" y1="12.4" x2="25.9" y2="10.2"/>
		<line class="st4ppp" x1="15.3" y1="14.6" x2="25.9" y2="12.5"/>
		<line class="st4ppp" x1="15.3" y1="16.9" x2="25.9" y2="14.7"/>
	</g>
</g>
</svg>
