<?xml version="1.0" encoding="utf-8"?>
<!-- Generator: Adobe Illustrator 27.5.0, SVG Export Plug-In . SVG Version: 6.00 Build 0)  -->
<svg version="1.1" xmlns="http://www.w3.org/2000/svg" xmlns:xlink="http://www.w3.org/1999/xlink" x="0px" y="0px"
	 viewBox="0 0 28.3 28.3" style="enable-background:new 0 0 28.3 28.3;" xml:space="preserve">
<style type="text/css">
	.st0{display:none;}
	.st1{fill:none;stroke:#000000;stroke-miterlimit:10;}
	.st2{display:inline;fill:#1D1D1B;}
	.st3{display:inline;}
	.st4{fill:none;stroke:#1D1D1B;stroke-width:0.75;stroke-miterlimit:10;}
</style>
<g id="Ebene_1" class="st0">
	
		<image style="display:inline;overflow:visible;" width="922" height="180" xlink:href="../../../../../../private/var/folders/tf/bsct8sbd12936hjd4qbt9tvh0000gn/T/TemporaryItems/NSIRD_screencaptureui_h6T7zc/Bildschirmfoto 2023-05-21 um 11.03.51.png"  transform="matrix(0.2988 0 0 0.2988 -18.9543 -13.6385)">
	</image>
</g>
<g id="Ebene_4">
	<polygon class="st1" points="3.8,2.5 22.2,2.5 22.2,25.9 13,16.5 3.7,25.9 	"/>
</g>
<g id="Ebene_2" class="st0">
	<path class="st2" d="M3.3,24.9h22.5c0,0-0.7-5.5-6.8-6.6c-0.7,0.2-4.7,2.2-8.4,0C9.4,18.6,4,20,3.3,24.9z"/>
	<circle class="st2" cx="14.6" cy="10.6" r="6.8"/>
</g>
<g id="Ebene_3" class="st0">
	<g class="st3">
		<g>
			<polygon class="st4" points="27.4,2.5 27.4,23 13.9,25.8 1.4,23 1.4,2.5 13.9,5.1 			"/>
			<line class="st4" x1="13.9" y1="5.1" x2="13.9" y2="25.4"/>
		</g>
		<line class="st4" x1="15.4" y1="7.9" x2="25.9" y2="5.7"/>
		<line class="st4" x1="15.3" y1="10.1" x2="25.9" y2="8"/>
		<line class="st4" x1="15.3" y1="12.4" x2="25.9" y2="10.2"/>
		<line class="st4" x1="15.3" y1="14.6" x2="25.9" y2="12.5"/>
		<line class="st4" x1="15.3" y1="16.9" x2="25.9" y2="14.7"/>
	</g>
</g>
</svg>
