<?xml version="1.0" encoding="utf-8"?>
<!-- Generator: Adobe Illustrator 27.5.0, SVG Export Plug-In . SVG Version: 6.00 Build 0)  -->
<svg version="1.1" xmlns="http://www.w3.org/2000/svg" xmlns:xlink="http://www.w3.org/1999/xlink" x="0px" y="0px"
	 viewBox="0 0 28.3 28.3" style="enable-background:new 0 0 28.3 28.3;" xml:space="preserve">
<style type="text/css">
	.st0{display:none;}
	.st1{display:inline;}
	.st2{display:inline;fill:#1D1D1B;}
	.st3{fill:none;stroke:#1D1D1B;stroke-width:0.75;stroke-miterlimit:10;}
	.st4{fill:#FFFFFF;}
	.st5{display:inline;fill:none;stroke:#4D8BC6;stroke-miterlimit:10;}
</style>
<g id="Ebene_2" class="st0">
	<g id="of0N4N.tif" class="st1">
		
			<image style="overflow:visible;" width="42" height="31" id="Layer_0_00000147900737044403381990000006646543667328851096_" xlink:href="CF3799A6A9C1ABE5.png"  transform="matrix(0.7023 0 0 0.7023 -0.5719 2.0926)">
		</image>
	</g>
</g>
<g id="Ebene_1">
	<g id="Ebene_1_00000032643367200088823770000015364641583177854107_" class="st0">
		
			<image style="display:inline;overflow:visible;enable-background:new    ;" width="922" height="180" xlink:href="../../../../../../private/var/folders/tf/bsct8sbd12936hjd4qbt9tvh0000gn/T/TemporaryItems/NSIRD_screencaptureui_h6T7zc/Bildschirmfoto 2023-05-21 um 11.03.51.png"  transform="matrix(0.2988 0 0 0.2988 -18.9543 -13.6385)">
		</image>
	</g>
	<g id="Ebene_2_00000000911966883495044790000007211877891964789668_" class="st0">
		<path class="st2" d="M3.3,24.9h22.5c0,0-0.7-5.5-6.8-6.6c-0.7,0.2-4.7,2.2-8.4,0C9.4,18.6,4,20,3.3,24.9z"/>
		<circle class="st2" cx="14.6" cy="10.6" r="6.8"/>
	</g>
	<g id="Ebene_3" class="st0">
		<g class="st1">
			<g>
				<polygon class="st3" points="27.4,2.5 27.4,23 13.9,25.8 1.4,23 1.4,2.5 13.9,5.1 				"/>
				<line class="st3" x1="13.9" y1="5.1" x2="13.9" y2="25.4"/>
			</g>
			<line class="st3" x1="15.4" y1="7.9" x2="25.9" y2="5.7"/>
			<line class="st3" x1="15.3" y1="10.1" x2="25.9" y2="8"/>
			<line class="st3" x1="15.3" y1="12.4" x2="25.9" y2="10.2"/>
			<line class="st3" x1="15.3" y1="14.6" x2="25.9" y2="12.5"/>
			<line class="st3" x1="15.3" y1="16.9" x2="25.9" y2="14.7"/>
		</g>
	</g>
	<g id="ChrjL7.tif">
		<g>
			<path class="st4" d="M1,27.7c0-9,0-18.1,0-27.1c8.5,0,17,0,25.5,0c0,9,0,18.1,0,27.1C18,27.7,9.5,27.7,1,27.7z M12.8,10.1
				C12.7,9.3,12.5,8.6,12,8c-1.6-2.3-3.3-4.6-4.9-6.9C6.7,0.6,6.4,0.5,6.1,0.7c-0.3,0.2-0.3,0.6,0,1C7.8,4,9.4,6.3,11,8.6
				c0.5,0.7,0.7,1.5,0.3,2.4c-0.2,0.6-0.1,1,0.2,1.5c2.4,3.1,4.7,6.1,7.1,9.2c0.8,1,1.5,2,2.3,3c0.3,0.4,0.3,0.9,0.1,1.3
				c-0.2,0.4-0.7,0.6-1.2,0.5c-0.4-0.1-0.6-0.3-0.8-0.6c-2.8-4.2-5.6-8.4-8.4-12.7c-0.3-0.5-0.7-0.7-1.3-0.7c-1,0.1-1.7-0.4-2.3-1.2
				C5.4,9,3.8,6.7,2.1,4.4C1.9,4.1,1.5,4,1.3,4.2C1,4.4,1,4.7,1.2,5.1c1.7,2.4,3.4,4.7,5.1,7.1c0.7,1,1.7,1.5,3,1.5
				c0.3,0,0.4,0.1,0.5,0.3c0.9,1.4,1.9,2.8,2.8,4.2c1.9,2.8,3.7,5.6,5.6,8.4c0.6,0.9,1.6,1.3,2.6,1c1.5-0.5,2-2.3,1-3.6
				c-3.1-4-6.2-8-9.2-11.9c-0.2-0.2-0.2-0.4-0.1-0.6C12.6,10.9,12.7,10.5,12.8,10.1z M26.4,4.5c0-0.3,0-0.6-0.1-0.9
				C26.1,2,25,0.9,23.5,0.7c-1-0.1-1.9,0.1-2.8,0.5c-2.4,1.2-4,3.1-5.1,5.5C15.1,8,14.8,9.3,15,10.7c0.1,0.4,0,0.8-0.1,1.2
				c-0.1,0.4,0,0.7,0.4,0.8c0.3,0.1,0.6-0.1,0.7-0.5c0.1-0.5,0.1-1,0.2-1.5c0-0.6-0.1-1.1,0-1.7c0.3-2.4,1.5-4.3,3.3-5.8
				c0.9-0.7,1.8-1.3,2.9-1.5c1.4-0.3,2.5,0.4,2.8,1.8c0.1,0.5,0.1,1.1,0.1,1.7c-0.3,2.2-1.4,4-3,5.5c-0.9,0.9-2,1.5-3.3,1.8
				c-0.7,0.1-1.3,0.4-1.9,0.9c-0.3,0.3-0.4,0.6-0.1,0.9c0.2,0.3,0.6,0.2,0.9,0c0.4-0.4,0.9-0.6,1.4-0.7c0.7-0.1,1.4-0.4,2-0.7
				c1.7-0.9,2.9-2.3,3.9-4C25.9,7.7,26.4,6.2,26.4,4.5z M7.6,27.6c1,0,1.7-0.4,2.2-1c1-1.6,2.1-3.1,3.1-4.7c0.2-0.3,0.1-0.6-0.1-0.8
				c-0.3-0.2-0.6-0.1-0.8,0.2c-0.2,0.3-0.4,0.6-0.6,0.9c-0.8,1.2-1.6,2.5-2.4,3.7c-0.4,0.6-1.2,0.8-1.7,0.4
				c-0.6-0.4-0.6-1.1-0.2-1.7c0.4-0.5,0.8-1.1,1.2-1.6c1-1.2,1.9-2.5,2.9-3.7c0.2-0.3,0.2-0.6-0.1-0.8c-0.3-0.2-0.6-0.2-0.8,0.1
				c-1.4,1.8-2.9,3.7-4.3,5.6c-0.6,0.7-0.6,1.6-0.1,2.4C6.2,27.2,6.9,27.6,7.6,27.6z M9.4,9.6C9.3,9.4,9.2,9.2,9.1,9.1
				C7.6,7,6.1,4.8,4.6,2.7C4.6,2.6,4.5,2.5,4.4,2.5C4.2,2.4,4,2.3,3.9,2.4C3.7,2.4,3.5,2.6,3.5,2.8c0,0.2,0.1,0.4,0.2,0.5
				c1.5,2.1,3,4.3,4.5,6.4C8.2,9.8,8.3,9.9,8.3,10c0.2,0.2,0.4,0.2,0.6,0.1C9.1,10,9.2,9.8,9.4,9.6z"/>
			<path d="M12.3,11c-0.1,0.4-0.1,0.7-0.2,1c-0.1,0.2,0,0.4,0.1,0.5c2.7,3.5,5.4,6.9,8.1,10.4c0.9,1.1,0.4,2.7-0.9,3.1
				c-0.9,0.3-1.7,0-2.3-0.8c-1.6-2.5-3.3-4.9-4.9-7.4c-0.8-1.2-1.6-2.4-2.4-3.7c-0.1-0.2-0.2-0.2-0.4-0.2c-1.1,0-2-0.4-2.6-1.3
				c-1.5-2.1-3-4.1-4.4-6.2C2,6.3,2,6,2.2,5.8C2.5,5.7,2.8,5.7,3,6c1.4,2,2.9,4,4.3,6c0.5,0.7,1.1,1.1,2,1c0.5,0,0.8,0.2,1.1,0.6
				c2.5,3.7,4.9,7.4,7.4,11.1c0.2,0.3,0.4,0.5,0.7,0.5c0.4,0.1,0.8-0.1,1-0.4c0.2-0.3,0.2-0.8-0.1-1.1c-0.7-0.9-1.3-1.7-2-2.6
				c-2.1-2.7-4.1-5.3-6.2-8c-0.3-0.4-0.4-0.8-0.2-1.3c0.3-0.7,0.2-1.4-0.3-2.1c-1.4-2-2.9-4-4.3-6C6.2,3.3,6.2,3,6.5,2.8
				C6.7,2.6,7,2.7,7.3,3.1c1.4,2,2.9,4,4.3,6C12,9.7,12.2,10.3,12.3,11z"/>
			<path d="M25.3,5.5c-0.1,1.5-0.4,2.8-1.2,4c-0.9,1.5-2,2.7-3.5,3.6c-0.6,0.3-1.2,0.5-1.8,0.7c-0.5,0.1-0.9,0.3-1.3,0.6
				c-0.3,0.3-0.6,0.3-0.8,0c-0.2-0.2-0.2-0.6,0.1-0.8c0.5-0.4,1-0.7,1.7-0.8c1.2-0.2,2.1-0.8,3-1.6c1.4-1.4,2.4-3,2.7-5
				c0.1-0.5,0-1,0-1.5c-0.3-1.3-1.3-1.9-2.5-1.7c-1,0.2-1.9,0.7-2.6,1.3c-1.6,1.4-2.7,3.1-3,5.2c-0.1,0.5,0,1,0,1.5
				c0,0.5-0.1,0.9-0.1,1.3c-0.1,0.3-0.4,0.5-0.6,0.4c-0.3-0.1-0.4-0.4-0.3-0.7c0.1-0.4,0.1-0.7,0.1-1.1c-0.2-1.3,0-2.5,0.6-3.7
				c0.9-2.2,2.4-3.9,4.6-5c0.8-0.4,1.6-0.6,2.5-0.4C24,2.2,25,3.2,25.2,4.6C25.2,4.9,25.3,5.2,25.3,5.5z"/>
			<path d="M7.7,26.8c-0.6,0-1.2-0.4-1.6-1c-0.4-0.7-0.4-1.4,0.1-2.1c1.2-1.6,2.4-3.2,3.6-4.7c0.2-0.2,0.5-0.3,0.7-0.1
				c0.2,0.2,0.2,0.5,0,0.7c-0.8,1.1-1.6,2.1-2.5,3.2c-0.3,0.4-0.7,0.9-1,1.3c-0.4,0.5-0.3,1.1,0.1,1.5c0.5,0.4,1.1,0.2,1.5-0.3
				c0.7-1,1.4-2.1,2.1-3.1c0.2-0.3,0.3-0.5,0.5-0.8c0.2-0.3,0.5-0.3,0.7-0.2c0.2,0.2,0.3,0.4,0.1,0.7c-0.9,1.3-1.7,2.7-2.6,4
				C9.2,26.5,8.5,26.8,7.7,26.8z"/>
			<path d="M8.8,9.7C8.7,9.8,8.6,10,8.4,10.1c-0.2,0.1-0.4,0.1-0.6-0.1C7.8,10,7.8,9.9,7.7,9.8C6.4,7.9,5,5.9,3.7,4
				C3.6,3.8,3.5,3.6,3.5,3.5c0-0.1,0.2-0.3,0.3-0.4c0.1,0,0.3,0,0.5,0.1c0.1,0,0.1,0.1,0.2,0.2c1.4,1.9,2.7,3.9,4.1,5.8
				C8.6,9.3,8.7,9.5,8.8,9.7z"/>
		</g>
	</g>
</g>
<g id="Ebene_3_00000165204187520909872760000006493392834140292254_" class="st0">
</g>
<g id="Ebene_4" class="st0">
	<path class="st5" d="M-13.3,31"/>
</g>
</svg>
