<?xml version="1.0" encoding="utf-8"?>
<!-- Generator: Adobe Illustrator 27.5.0, SVG Export Plug-In . SVG Version: 6.00 Build 0)  -->
<svg version="1.1" id="Ebene_1" xmlns="http://www.w3.org/2000/svg" xmlns:xlink="http://www.w3.org/1999/xlink" x="0px" y="0px"
	 viewBox="0 0 28.3 28.3" style="enable-background:new 0 0 28.3 28.3;" xml:space="preserve">
<style type="text/css">
	.st0{fill:#661412;enable-background:new    ;}
	.st1{fill:#FFFFFF;}
</style>
<circle class="st0" cx="14.1" cy="14.2" r="14.1"/>
<g>
	<g>
		<polygon class="st1" points="11.7,14 10.4,12.8 15.4,7.9 16.6,9.1 		"/>
		<ellipse class="st1" cx="16" cy="8.5" rx="0.9" ry="0.8"/>
	</g>
	<g>
		<polygon class="st1" points="10.4,15.1 11.6,13.9 16.6,18.8 15.4,20 		"/>
		
			<ellipse transform="matrix(1 -5.699918e-03 5.699918e-03 1 -0.1102 9.137964e-02)" class="st1" cx="16" cy="19.4" rx="0.8" ry="0.9"/>
	</g>
	<polygon class="st1" points="10.4,12.8 9.9,13.4 9.8,13.5 9.7,13.6 9.7,13.8 9.7,13.8 9.7,14 9.7,14.1 9.7,14.3 9.8,14.4 10,14.6 
		10.2,14.8 10.4,15.1 11.1,14.6 11.6,13.9 11.2,12.9 	"/>
</g>
</svg>
