<?xml version="1.0" encoding="utf-8"?>
<!-- Generator: Adobe Illustrator 27.5.0, SVG Export Plug-In . SVG Version: 6.00 Build 0)  -->
<svg version="1.1" xmlns="http://www.w3.org/2000/svg" xmlns:xlink="http://www.w3.org/1999/xlink" x="0px" y="0px"
	 viewBox="0 0 28.3 28.3" style="enable-background:new 0 0 28.3 28.3;" xml:space="preserve">
<style type="text/css">
	.st0{display:none;}
	.st1{display:inline;}
	.st2{fill:none;stroke:#000000;stroke-width:0.75;stroke-miterlimit:10;}
</style>
<g id="Ebene_1" class="st0">
	<g id="gT75mh.tif" class="st1">
		
			<image style="overflow:visible;" width="200" height="200" id="Layer_0_00000026137048401296600090000001493749983115493305_" xlink:href="5F8FC53502F47369.png"  transform="matrix(0.1095 0 0 0.1095 3.9732 2.0868)">
		</image>
	</g>
</g>
<g id="Ebene_2">
	<g>
		<ellipse class="st2" cx="11.6" cy="13.2" rx="6.8" ry="6.7"/>
		<path class="st2" d="M23.9,23.5H6c-1,0-1.8-0.8-1.8-1.8v0C4.2,20.8,5,20,6,20h18c1,0,1.8,0.8,1.8,1.8v0
			C25.7,22.7,24.9,23.5,23.9,23.5z"/>
		<path class="st2" d="M14.4,9.9c-1,1.1-1.6,2.4-1.6,3.9c0,3.4,3.1,6.1,6.9,6.1c2.2,0,4.1-0.9,5.4-2.4L14.4,9.9z"/>
		<path class="st2" d="M12.7,17.4c0-0.8-0.9-1.5-2.1-1.5c-1.2,0-2.1,0.7-2.1,1.5c0,0.1,0,0.2,0,0.2l0,2.4l4.1,0L12.7,17.4z"/>
		<path class="st2" d="M6.2,2.6c0,0-0.3,4.7,3.2,4.2c1-0.3,3.3-0.3,3.3-0.3S12.4,4.3,11,3.2C10.7,2.9,8.4,1.2,6.2,2.6z"/>
	</g>
</g>
</svg>
