<?xml version="1.0" encoding="utf-8"?>
<!-- Generator: Adobe Illustrator 27.5.0, SVG Export Plug-In . SVG Version: 6.00 Build 0)  -->
<svg version="1.1" xmlns="http://www.w3.org/2000/svg" xmlns:xlink="http://www.w3.org/1999/xlink" x="0px" y="0px"
	 viewBox="0 0 28.3 28.3" style="enable-background:new 0 0 28.3 28.3;" xml:space="preserve">
<style type="text/css">
	.st0{display:none;}
	.st1{display:inline;}
	.st2{fill:none;stroke:#000000;stroke-width:0.75;stroke-miterlimit:10;}
</style>
<g id="Ebene_1" class="st0">
	<g id="chVIiW.tif" class="st1">
		
			<image style="overflow:visible;" width="460" height="392" id="Layer_0_00000176039821787259768380000011077640086548751018_" xlink:href="E5FAF7EACAB4FAB7.png"  transform="matrix(5.662059e-02 0 0 5.662059e-02 3.700091e-02 2.1042)">
		</image>
	</g>
</g>
<g id="Ebene_2">
	<g>
		<path class="st2" d="M7.2,7c0.2-0.3,0.7-0.3,0.9,0l2.3,3.9l2.3,3.9c0.2,0.3,0,0.8-0.4,0.8H7.6H3.1c-0.4,0-0.6-0.4-0.4-0.8l2.3-3.9
			L7.2,7z"/>
		<path class="st2" d="M13.5,10.7c-0.2,0.3-0.7,0.2-0.8-0.1l-1.4-3.8L10,3c-0.1-0.3,0.2-0.7,0.5-0.6l3.9,0.7l3.9,0.7
			c0.3,0.1,0.5,0.5,0.3,0.7l-2.6,3.1L13.5,10.7z"/>
		<path class="st2" d="M14.8,14.2c-0.3-0.1-0.5-0.5-0.3-0.7l2.6-3l2.6-3c0.2-0.3,0.7-0.2,0.8,0.1l1.3,3.8l1.3,3.8
			c0.1,0.3-0.2,0.7-0.5,0.6l-3.9-0.7L14.8,14.2z"/>
		<circle class="st2" cx="12.2" cy="4.2" r="0.1"/>
		<circle class="st2" cx="12.7" cy="6" r="0.1"/>
		<circle class="st2" cx="14.2" cy="4.6" r="0.1"/>
		<circle class="st2" cx="16.3" cy="5" r="0.1"/>
		<circle class="st2" cx="14.7" cy="6.4" r="0.1"/>
		<circle class="st2" cx="13.2" cy="7.8" r="0.1"/>
		<circle class="st2" cx="5.6" cy="13.9" r="0.1"/>
		<circle class="st2" cx="7.6" cy="13.9" r="0.1"/>
		<circle class="st2" cx="6.6" cy="11.6" r="0.1"/>
		<circle class="st2" cx="7.6" cy="9.2" r="0.1"/>
		<circle class="st2" cx="8.7" cy="11.5" r="0.1"/>
		<circle class="st2" cx="9.7" cy="14" r="0.1"/>
		<circle class="st2" cx="20.9" cy="13.5" r="0.1"/>
		<circle class="st2" cx="20.4" cy="11.7" r="0.1"/>
		<circle class="st2" cx="18.9" cy="13.1" r="0.1"/>
		<circle class="st2" cx="16.8" cy="12.7" r="0.1"/>
		<circle class="st2" cx="18.4" cy="11.3" r="0.1"/>
		<circle class="st2" cx="19.8" cy="9.9" r="0.1"/>
		<rect x="8.1" y="21.5" class="st2" width="9.8" height="2.3"/>
		<path class="st2" d="M8.1,21.5l-7.6-3.7c-0.1,0,0-0.1,0-0.1h25c0.1,0,0.1,0.1,0,0.2l-7.6,3.7"/>
	</g>
</g>
</svg>
