<?xml version="1.0" encoding="utf-8"?>
<!-- Generator: Adobe Illustrator 27.5.0, SVG Export Plug-In . SVG Version: 6.00 Build 0)  -->
<svg version="1.1" id="Ebene_1" xmlns="http://www.w3.org/2000/svg" xmlns:xlink="http://www.w3.org/1999/xlink" x="0px" y="0px"
	 viewBox="0 0 28.3 28.3" style="enable-background:new 0 0 28.3 28.3;" xml:space="preserve">
<style type="text/css">
	.st0{display:none;}
	.st1{display:inline;}
	.st2{fill:none;stroke:#000000;stroke-width:0.75;stroke-miterlimit:9.9995;}
	.st3{fill:none;stroke:#000000;stroke-width:0.75;stroke-miterlimit:10;}
</style>
<g id="Ebene_1_00000124883741380477635820000004850336195751224983_" class="st0">
	<g id="QmNSGt.tif" class="st1">
		
			<image style="overflow:visible;enable-background:new    ;" width="215" height="425" id="Layer_0_00000109006488619196907420000007100597906188102046_" xlink:href="62F3D5CF46DE5327.png"  transform="matrix(6.391992e-02 0 0 6.391992e-02 6.7856 0.5863)">
		</image>
	</g>
</g>
<g id="Ebene_2_00000148657418512078733920000006179139288355767969_">
	<ellipse class="st2" cx="15.6" cy="19.9" rx="7.1" ry="7.1"/>
	<path class="st3" d="M22.1,17.3c0,0-0.8-2.3-2.9-3.7c-0.2-0.3-2.2-2.5-2.7-5.2c-0.3-0.9-1.1-1.5-3.1-0.8c-0.9,0.3-4,1.4-4,1.4
		s-1.5,0.5-0.9,2.2c0.1,0.3,0.7,1.6,0.7,3.6c0,0.5-0.1,2.9-0.6,4.5c0,0.3,0,2.7,1,4.2"/>
	<path class="st3" d="M17.5,24.9c0,0-4.6,1.9-7.4-3.8"/>
	<path d="M17.2,24.9c-0.1-0.2,0-0.4,0.1-0.4s0.2,0.1,0.3,0.3c0.1,0.2,0.1,0.3,0,0.4C17.5,25.2,17.3,25.1,17.2,24.9z"/>
	<path d="M10,20.8c0.2-0.1,0.4,0,0.4,0.1s-0.1,0.2-0.3,0.3c-0.2,0.1-0.3,0.1-0.4,0C9.7,21.1,9.8,20.8,10,20.8z"/>
	<rect x="8.6" y="9.8" transform="matrix(0.953 -0.3028 0.3028 0.953 -2.4876 4.2773)" width="7.9" height="0.8"/>
	<path class="st3" d="M9.8,5.2c0.4-0.1,0.7-0.3,0.9-0.6c0.4,0.1,0.8,0.1,1.2,0c1-0.3,1.6-1.4,1.3-2.3c-0.3-1-1.4-1.5-2.5-1.1
		C10.3,1.3,10,1.5,9.8,1.8C9.4,1.7,9,1.7,8.6,1.8C7.6,2,7,3,7.3,4C7.6,5,8.7,5.5,9.8,5.2z"/>
	<rect x="12.4" y="4.5" class="st2" width="0" height="3.1"/>
	<rect x="10.1" y="5.2" class="st2" width="0" height="3.1"/>
</g>
</svg>
