<?xml version="1.0" encoding="utf-8"?>
<!-- Generator: Adobe Illustrator 27.5.0, SVG Export Plug-In . SVG Version: 6.00 Build 0)  -->
<svg version="1.1" xmlns="http://www.w3.org/2000/svg" xmlns:xlink="http://www.w3.org/1999/xlink" x="0px" y="0px"
	 viewBox="0 0 28.3 28.3" style="enable-background:new 0 0 28.3 28.3;" xml:space="preserve">
<style type="text/css">
	.st0{display:none;}
	.st1{display:inline;}
	.st2{fill:none;stroke:#000000;stroke-width:0.75;stroke-miterlimit:10;}
</style>
<g id="Ebene_1" class="st0">
	<g id="XT38yn.tif" class="st1">
		
			<image style="overflow:visible;" width="474" height="360" id="Layer_0_00000016782797237552580840000017705705732790077833_" xlink:href="DF661611B3E012B3.png"  transform="matrix(5.831509e-02 0 0 5.831509e-02 0.3715 2.9837)">
		</image>
	</g>
</g>
<g id="Ebene_2">
	<g>
		<ellipse class="st2" cx="6.9" cy="11.4" rx="3.3" ry="3.4"/>
		<path class="st2" d="M0.5,17.8l0.1-4.4c0,0-1.6-4.2,3.5-8.3c1-0.8,4.1-3,9.5-1.5c0.7,0.2,5.5,1.7,8.5,6c0.5,0.6,1.2,1.3,3.3,2.5
			c0.3,0.2,2.7,1.3,2.5,4.3c0.1,1.3,0,4.2,0,4.2s-0.4,3.7-5.4,3c-0.8-0.3-1.9-1-3.1-1.9c-0.5-0.2-1.1-1.2-4-0.2
			c-0.6,0.2-5.7,3.1-9.5,2.3C5.4,23.6,0.9,22.4,0.5,17.8z"/>
		<path class="st2" d="M0.6,13.3c0,0,2.2,8.5,11,4.8c1.3-0.4,6-3.5,9.3-0.4c0.8,0.6,5.8,3.1,7-1.6"/>
	</g>
</g>
</svg>
