<?xml version="1.0" encoding="utf-8"?>
<!-- Generator: Adobe Illustrator 27.5.0, SVG Export Plug-In . SVG Version: 6.00 Build 0)  -->
<svg version="1.1" xmlns="http://www.w3.org/2000/svg" xmlns:xlink="http://www.w3.org/1999/xlink" x="0px" y="0px"
	 viewBox="0 0 28.3 28.3" style="enable-background:new 0 0 28.3 28.3;" xml:space="preserve">
<style type="text/css">
	.st0{display:none;}
	.st1{display:inline;}
	.st2{fill:none;stroke:#000000;stroke-width:0.75;stroke-miterlimit:10;}
</style>
<g id="Ebene_1" class="st0">
	<g id="nFmEu3.tif" class="st1">
		
			<image style="overflow:visible;" width="290" height="362" id="Layer_0_00000152251062797621587600000015889789902513838270_" xlink:href="B47D4057CF696989.png"  transform="matrix(6.899975e-02 0 0 6.899975e-02 3.8509 1.5257)">
		</image>
	</g>
</g>
<g id="Ebene_2">
	<path d="M13.9,19.3L13.9,19.3c-0.3,0-0.5-0.2-0.5-0.4l0-16.9c0-0.2,0.2-0.5,0.4-0.5l0.1,0c0.2,0,0.4,0.2,0.4,0.4l0,16.9
		C14.4,19.1,14.2,19.3,13.9,19.3z"/>
	<path class="st2" d="M20.2,25.9H7.6c-1.8,0-3.3-1.5-3.3-3.3v-0.2c0-1.8,1.5-3.3,3.3-3.3h12.6c1.8,0,3.3,1.5,3.3,3.3v0.2
		C23.4,24.5,22,25.9,20.2,25.9z"/>
	<path class="st2" d="M9.7,19.2c0,0,4.3,1.1,7.4,4.1c1.2,0.8,3.3,2.3,4.9,2"/>
	<path class="st2" d="M4.5,18c0,0,2.4-1,5.8,0.1c0.1,0,0.3,0.1,0.4,0c0.7-0.1,1.5-0.4,2.3-0.7c0.2-0.1,0.4-0.1,0.7,0
		c0.7,0.3,2.2,0.8,4.2-0.1c0.3-0.1,0.6-0.2,0.9,0c1,0.4,3.3,1.2,4.3-0.1"/>
	<ellipse transform="matrix(0.9246 -0.381 0.381 0.9246 -6.5101 3.0736)" cx="4.5" cy="18" rx="0.1" ry="0.4"/>
	<ellipse transform="matrix(0.5823 -0.813 0.813 0.5823 -4.3409 25.9707)" cx="23.1" cy="17.2" rx="0.1" ry="0.4"/>
	<path class="st2" d="M7.9,12.7c0,0,5.3,2.6,12.1,0c0.7-0.3,2.1,0.7,0.8,1.8c-0.4,0.3-7.6,3.6-13.7,0C6.2,13.7,6.7,12.3,7.9,12.7z"
		/>
	<ellipse class="st2" cx="13.8" cy="11.5" rx="2.3" ry="0.8"/>
	<ellipse class="st2" cx="13.8" cy="9.2" rx="1.3" ry="0.8"/>
	<path class="st2" d="M15.1,2.3c0,0-2.4,0.5-3.2,1.5c-0.1,0.2,0,0.4,0.2,0.5c0.7,0.1,1.8,0.3,2.8,0.2"/>
</g>
</svg>
