<?xml version="1.0" encoding="utf-8"?>
<!-- Generator: Adobe Illustrator 27.5.0, SVG Export Plug-In . SVG Version: 6.00 Build 0)  -->
<svg version="1.1" xmlns="http://www.w3.org/2000/svg" xmlns:xlink="http://www.w3.org/1999/xlink" x="0px" y="0px"
	 viewBox="0 0 28.3 28.3" style="enable-background:new 0 0 28.3 28.3;" xml:space="preserve">
<style type="text/css">
	.st0{display:none;}
	.st1{fill:#FFFFFF;stroke:#000000;stroke-width:0.25;stroke-miterlimit:10;}
</style>
<g id="Ebene_1" class="st0">
	
		<image style="display:inline;overflow:visible;" width="384" height="530" xlink:href="../../../Bildschirmfoto 2023-06-01 um 23.31.04.png"  transform="matrix(0.5 0 0 0.5 -43.257 -100.4912)">
	</image>
</g>
<g id="Ebene_2">
	<path class="st1" d="M19,16.4h-4.1c-0.4,0-0.8-0.3-0.8-0.8v-4.1c0-0.4,0.3-0.8,0.8-0.8H19c0.4,0,0.8,0.3,0.8,0.8v4.1
		C19.8,16,19.4,16.4,19,16.4z"/>
	<path class="st1" d="M12.4,16.4H8.2c-0.4,0-0.8-0.3-0.8-0.8v-4.1c0-0.4,0.3-0.8,0.8-0.8h4.1c0.4,0,0.8,0.3,0.8,0.8v4.1
		C13.1,16,12.8,16.4,12.4,16.4z"/>
	<path class="st1" d="M15.7,22h-4.1c-0.4,0-0.8-0.3-0.8-0.8v-4.1c0-0.4,0.3-0.8,0.8-0.8h4.1c0.4,0,0.8,0.3,0.8,0.8v4.1
		C16.5,21.7,16.2,22,15.7,22z"/>
	<path class="st1" d="M9.1,22H5c-0.4,0-0.8-0.3-0.8-0.8v-4.1c0-0.4,0.3-0.8,0.8-0.8h4.1c0.4,0,0.8,0.3,0.8,0.8v4.1
		C9.8,21.7,9.5,22,9.1,22z"/>
	<path class="st1" d="M22.4,22h-4.1c-0.4,0-0.8-0.3-0.8-0.8v-4.1c0-0.4,0.3-0.8,0.8-0.8h4.1c0.4,0,0.8,0.3,0.8,0.8v4.1
		C23.1,21.7,22.8,22,22.4,22z"/>
	<path class="st1" d="M15.7,10.7h-4.1c-0.4,0-0.8-0.3-0.8-0.8V5.9c0-0.4,0.3-0.8,0.8-0.8h4.1c0.4,0,0.8,0.3,0.8,0.8V10
		C16.5,10.4,16.1,10.7,15.7,10.7z"/>
	<circle cx="14.5" cy="9.2" r="0.5"/>
	<circle cx="12.2" cy="6.3" r="0.3"/>
	<circle cx="15.5" cy="6.8" r="0.4"/>
	<circle cx="12.6" cy="8.1" r="0.4"/>
	<circle cx="10.8" cy="14.9" r="0.5"/>
	<circle cx="8.5" cy="11.9" r="0.3"/>
	<circle cx="11.9" cy="12.5" r="0.4"/>
	<circle cx="8.9" cy="13.8" r="0.4"/>
	<circle cx="17.6" cy="15" r="0.5"/>
	<circle cx="15.3" cy="12.1" r="0.3"/>
	<circle cx="18.7" cy="12.6" r="0.4"/>
	<circle cx="15.7" cy="13.9" r="0.4"/>
	<circle cx="14.4" cy="20.6" r="0.5"/>
	<circle cx="12" cy="17.7" r="0.3"/>
	<circle cx="15.4" cy="18.3" r="0.4"/>
	<circle cx="12.5" cy="19.6" r="0.4"/>
	<circle cx="21" cy="20.7" r="0.5"/>
	<circle cx="18.7" cy="17.7" r="0.3"/>
	<circle cx="22.1" cy="18.3" r="0.4"/>
	<circle cx="19.2" cy="19.6" r="0.4"/>
	<circle cx="7.6" cy="20.5" r="0.5"/>
	<circle cx="5.3" cy="17.5" r="0.3"/>
	<circle cx="8.7" cy="18.1" r="0.4"/>
	<circle cx="5.8" cy="19.4" r="0.4"/>
</g>
</svg>
