<?xml version="1.0" encoding="utf-8"?>
<!-- Generator: Adobe Illustrator 27.5.0, SVG Export Plug-In . SVG Version: 6.00 Build 0)  -->
<svg version="1.1" id="Ebene_1" xmlns="http://www.w3.org/2000/svg" xmlns:xlink="http://www.w3.org/1999/xlink" x="0px" y="0px"
	 viewBox="0 0 28.3 28.3" style="enable-background:new 0 0 28.3 28.3;" xml:space="preserve">
<style type="text/css">
	.st0{display:none;}
	.st1{display:inline;}
	.st2{fill:#660F0F;}
</style>
<g id="Ebene_1_00000014616874584953857140000008985515468051342525_" class="st0">
	<g id="nFmEu3.tif" class="st1">
		
			<image style="overflow:visible;enable-background:new    ;" width="283" height="355" id="Layer_0_00000152251062797621587600000015889789902513838270_" xlink:href="B47D4057CF696989.png"  transform="matrix(7.049502e-02 0 0 7.049502e-02 3.8808 1.5018)">
		</image>
	</g>
</g>
<g>
	<g id="Ebene_3_00000028322992074694798520000015904493404050395054_">
		<circle class="st2" cx="13.7" cy="12.4" r="4.1"/>
		<path class="st2" d="M17.4,9.7c0,0,0-0.1,0-0.2c0.2-0.2,0.8-1,2.4-1.1c2.4-0.2,4.3,1.9,4.3,4.1s-1.9,4.2-4.3,3.9
			c-1.4-0.2-2.2-1-2.4-1.2c0,0,0-0.1,0-0.2C17.8,14.6,19.3,12.2,17.4,9.7z"/>
		<path class="st2" d="M10.1,15.1L10.1,15.1c-0.1,0.3-0.7,1.1-2.4,1.2c-2.4,0.2-4.3-1.9-4.3-4.1S5.3,8,7.7,8.3C9,8.5,9.8,9.2,10,9.5
			c0.1,0.1,0.1,0.2,0,0.3C9.6,10.4,8.3,12.6,10.1,15.1z"/>
		<path class="st2" d="M6.9,16.9c0.3,0,2.4,0,3.6-1.2h0.1c0.3,0.2,1.6,1.6,3.7,1.2h0.1c0.1,0.7,0.8,4.7-3.6,5.1h-0.1
			C9.9,22,6,21.7,6.9,16.9C6.8,16.9,6.9,16.9,6.9,16.9z"/>
		<path class="st2" d="M10.2,22.5c0.6,0,2.3-0.1,3.4-1c0.1-0.1,0.1-0.1,0.2,0c0.4,0.3,1.6,1.3,3.5,1c0.1,0,0.2,0,0.2,0.1
			c0.2,0.8,0.6,4-3.6,4.4h-0.1c-0.6,0-4.5-0.2-3.8-4.3C10,22.6,10.1,22.5,10.2,22.5z"/>
		<path class="st2" d="M14.9,16.8c0.1,0.4,0.7,2.1-0.7,4v0.1c0.7,0.5,3.2,2.3,5.7-0.2c0.4-0.7,1.4-1.7,0.8-3.8l0,0
			c-0.3,0-2.1,0.2-3.6-1.2H17C16.6,15.8,15.5,16.7,14.9,16.8C14.9,16.7,14.9,16.8,14.9,16.8z"/>
		<path class="st2" d="M10.3,3c0,0,2.3,1.9,2.6,4.9c0.3,0,1-0.1,1.1,0c0-0.9,0.1-4.4-1.4-6.6c-0.1-0.1-0.2-0.2-0.4-0.1
			c-0.1,0.1-1.9,1.5-1.9,1.5S10.2,2.8,10.3,3z"/>
	</g>
</g>
</svg>
