<?xml version="1.0" encoding="utf-8"?>
<!-- Generator: Adobe Illustrator 27.5.0, SVG Export Plug-In . SVG Version: 6.00 Build 0)  -->
<svg version="1.1" id="Ebene_1" xmlns="http://www.w3.org/2000/svg" xmlns:xlink="http://www.w3.org/1999/xlink" x="0px" y="0px"
	 viewBox="0 0 98.5 84.6" style="enable-background:new 0 0 98.5 84.6;" xml:space="preserve">
<style type="text/css">
	.st0tt{fill:none;stroke:#ED6B63;stroke-width:0.75;stroke-linecap:round;stroke-linejoin:round;stroke-miterlimit:10;}
	.st1{fill:none;stroke:#ECDA58;stroke-width:0.75;stroke-linecap:round;stroke-linejoin:round;stroke-miterlimit:10;}
	.st2{fill:none;stroke:#671412;stroke-width:0.75;stroke-miterlimit:10;}
	.st3{fill:none;stroke:#671412;stroke-width:0.5;stroke-miterlimit:10;}
	.st4{fill:#FFFFFF;}
	.st5{fill:#E9D952;stroke:#671412;stroke-width:0.5;stroke-miterlimit:10;}
	.st6{fill:none;stroke:#671412;stroke-width:0.5;stroke-linecap:round;stroke-linejoin:round;stroke-miterlimit:10;}
	.st7{fill:#6A1517;}
	.st8rr{font-family:'SemplicitaPro-Bold';}
	.st9{font-size:11.0663px;}
</style>
<g>
	<line class="st0tt" x1="49.4" y1="12.8" x2="49.4" y2="4"/>
	<line class="st0tt" x1="49.4" y1="82.6" x2="49.4" y2="73.8"/>
	<line class="st0tt" x1="76.9" y1="29.9" x2="85" y2="26.5"/>
	<line class="st0tt" x1="13.1" y1="58.5" x2="21.3" y2="55.1"/>
	<line class="st0tt" x1="61.2" y1="71.4" x2="64.6" y2="79.6"/>
	<line class="st0tt" x1="34.2" y1="7" x2="37.6" y2="15.1"/>
	<line class="st0tt" x1="60.8" y1="15" x2="64.1" y2="6.8"/>
	<line class="st0tt" x1="34.8" y1="79.8" x2="38" y2="71.6"/>
	<line class="st0tt" x1="77.7" y1="54.7" x2="85.9" y2="58"/>
	<line class="st0tt" x1="13.7" y1="26.1" x2="21.9" y2="29.4"/>
	<g>
		<line class="st1" x1="54.9" y1="13.3" x2="56" y2="7.6"/>
		<line class="st1" x1="42.8" y1="79" x2="43.9" y2="73.3"/>
	</g>
	<g>
		<line class="st1" x1="66.1" y1="17.8" x2="69.3" y2="12.9"/>
		<line class="st1" x1="29.5" y1="73.7" x2="32.7" y2="68.8"/>
	</g>
	<g>
		<line class="st1" x1="74.6" y1="26.2" x2="79.5" y2="23"/>
		<line class="st1" x1="19.1" y1="63.2" x2="23.9" y2="60.1"/>
	</g>
	<g>
		<line class="st1" x1="78.7" y1="34.4" x2="84.4" y2="33.3"/>
		<line class="st1" x1="13.8" y1="50.3" x2="19.5" y2="49.2"/>
	</g>
	<g>
		<line class="st1" x1="79.3" y1="49.6" x2="84.9" y2="50.7"/>
		<line class="st1" x1="14.4" y1="32.5" x2="20.1" y2="33.7"/>
	</g>
	<g>
		<line class="st1" x1="74.9" y1="60.1" x2="79.7" y2="63.3"/>
		<line class="st1" x1="19.6" y1="22.4" x2="24.5" y2="25.6"/>
	</g>
	<g>
		<line class="st1" x1="66.3" y1="68.7" x2="69.5" y2="73.6"/>
		<line class="st1" x1="29.4" y1="13" x2="32.6" y2="17.9"/>
	</g>
	<g>
		<line class="st1" x1="43.5" y1="13.4" x2="42.3" y2="7.7"/>
		<line class="st1" x1="56.5" y1="78.9" x2="55.3" y2="73.2"/>
	</g>
</g>
<circle class="st2" cx="49.6" cy="42" r="25.4"/>
<circle class="st3" cx="49.6" cy="42" r="21.3"/>
<rect x="16.1" y="41.8" transform="matrix(0.7071 0.7071 -0.7071 0.7071 45.3174 -22.3495)" class="st4" width="67.1" height="3.4"/>
<rect x="15.7" y="42.6" transform="matrix(0.7071 -0.7071 0.7071 0.7071 -16.861 47.8161)" class="st4" width="67.1" height="3.4"/>
<g>
	<line class="st5" x1="26.7" y1="67.1" x2="72.7" y2="21.1"/>
	<polyline class="st6" points="70.2,21.1 72.8,21.1 72.8,23.6 	"/>
	<polyline class="st6" points="29.4,67.1 26.8,67.1 26.8,64.5 	"/>
</g>
<g>
	<line class="st5" x1="26.6" y1="20.5" x2="72.6" y2="66.5"/>
	<polyline class="st6" points="72.6,64 72.6,66.5 70.1,66.5 	"/>
	<polyline class="st6" points="26.6,23.1 26.6,20.5 29.2,20.5 	"/>
</g>
<rect x="14.3" y="35" class="st4" width="25.6" height="10.8"/>
<g>
	<path class="st6" d="M74.4,47.6"/>
</g>
<rect x="59.7" y="35.2" class="st4" width="25.6" height="10.8"/>
<g>
	<g>
		<line class="st6" x1="49.5" y1="20.6" x2="49.5" y2="16.6"/>
		<line class="st6" x1="49.5" y1="67.4" x2="49.5" y2="63.3"/>
	</g>
	<g>
		<line class="st6" x1="69.1" y1="33.4" x2="72.8" y2="31.8"/>
		<line class="st6" x1="26.3" y1="52.1" x2="30" y2="50.5"/>
	</g>
	<g>
		<line class="st6" x1="58.1" y1="61.5" x2="59.7" y2="65.2"/>
		<line class="st6" x1="39.4" y1="18.7" x2="41" y2="22.4"/>
	</g>
	<g>
		<line class="st6" x1="69.2" y1="50.2" x2="72.9" y2="51.8"/>
		<line class="st6" x1="26.1" y1="32.1" x2="29.8" y2="33.7"/>
	</g>
	<g>
		<line class="st6" x1="41.2" y1="61.6" x2="39.7" y2="65.4"/>
		<line class="st6" x1="59.3" y1="18.6" x2="57.8" y2="22.3"/>
	</g>
	<g>
		<line class="st6" x1="53.8" y1="21.1" x2="54.6" y2="17.1"/>
		<line class="st6" x1="44.4" y1="66.8" x2="45.3" y2="62.9"/>
	</g>
	<g>
		<line class="st6" x1="45.2" y1="21.1" x2="44.4" y2="17.1"/>
		<line class="st6" x1="54.7" y1="66.8" x2="53.8" y2="62.9"/>
	</g>
	<g>
		<line class="st6" x1="61.2" y1="24.1" x2="63.4" y2="20.8"/>
		<line class="st6" x1="35.6" y1="63.2" x2="37.8" y2="59.8"/>
	</g>
	<g>
		<line class="st6" x1="67.3" y1="30.2" x2="70.6" y2="28"/>
		<line class="st6" x1="28.4" y1="56" x2="31.8" y2="53.8"/>
	</g>
	<g>
		<line class="st6" x1="37.4" y1="24.4" x2="35.1" y2="21.1"/>
		<line class="st6" x1="63.9" y1="62.9" x2="61.6" y2="59.5"/>
	</g>
	<g>
		<line class="st6" x1="67.2" y1="54" x2="70.5" y2="56.2"/>
		<line class="st6" x1="28.5" y1="27.8" x2="31.9" y2="30"/>
	</g>
</g>
<circle class="st4" cx="49.8" cy="41.1" r="3.9"/>
<text transform="matrix(1 0 0 1 5.1785 45.4699)" class="st7 st8rr st9">WEINKOMPASS</text>
<polygon class="st4" points="43.5,37.1 43.9,37.4 44.4,37 43.9,36.8 "/>
<polygon class="st4" points="56.5,37 56.4,37.1 56.2,36.9 56.5,36.7 56.6,36.9 "/>
</svg>
