<?xml version="1.0" encoding="utf-8"?>
<!-- Generator: Adobe Illustrator 27.5.0, SVG Export Plug-In . SVG Version: 6.00 Build 0)  -->
<svg version="1.1" xmlns="http://www.w3.org/2000/svg" xmlns:xlink="http://www.w3.org/1999/xlink" x="0px" y="0px"
	 viewBox="0 0 43.7 28.3" style="enable-background:new 0 0 43.7 28.3;" xml:space="preserve">
<style type="text/css">
	.st0{display:none;}
	.st1{display:inline;}
	.st2{display:inline;fill:#1D1D1B;}
	.st3{fill:none;stroke:#1D1D1B;stroke-width:0.75;stroke-miterlimit:10;}
	.st4{fill:none;stroke:#4D8BC6;stroke-miterlimit:10;}
	.st5{fill:#0433FC;}
	.st6{fill:#FFFFFF;}
	.st7{fill:#FC0204;}
</style>
<g id="Ebene_2" class="st0">
	<g id="of0N4N.tif" class="st1">
		
			<image style="overflow:visible;" width="42" height="31" id="Layer_0_00000147900737044403381990000006646543667328851096_" xlink:href="C1B6E402D8A81133.png"  transform="matrix(0.7023 0 0 0.7023 -0.5719 2.0926)">
		</image>
	</g>
</g>
<g id="Ebene_1" class="st0">
	<g id="Ebene_1_00000032643367200088823770000015364641583177854107_">
		
			<image style="display:inline;overflow:visible;enable-background:new    ;" width="922" height="180" xlink:href="../../../../../../private/var/folders/tf/bsct8sbd12936hjd4qbt9tvh0000gn/T/TemporaryItems/NSIRD_screencaptureui_h6T7zc/Bildschirmfoto 2023-05-21 um 11.03.51.png"  transform="matrix(0.2988 0 0 0.2988 -18.9543 -13.6385)">
		</image>
	</g>
	<g id="Ebene_2_00000000911966883495044790000007211877891964789668_">
		<path class="st2" d="M3.3,24.9h22.5c0,0-0.7-5.5-6.8-6.6c-0.7,0.2-4.7,2.2-8.4,0C9.4,18.6,4,20,3.3,24.9z"/>
		<circle class="st2" cx="14.6" cy="10.6" r="6.8"/>
	</g>
	<g id="Ebene_3">
		<g class="st1">
			<g>
				<polygon class="st3" points="27.4,2.5 27.4,23 13.9,25.8 1.4,23 1.4,2.5 13.9,5.1 				"/>
				<line class="st3" x1="13.9" y1="5.1" x2="13.9" y2="25.4"/>
			</g>
			<line class="st3" x1="15.4" y1="7.9" x2="25.9" y2="5.7"/>
			<line class="st3" x1="15.3" y1="10.1" x2="25.9" y2="8"/>
			<line class="st3" x1="15.3" y1="12.4" x2="25.9" y2="10.2"/>
			<line class="st3" x1="15.3" y1="14.6" x2="25.9" y2="12.5"/>
			<line class="st3" x1="15.3" y1="16.9" x2="25.9" y2="14.7"/>
		</g>
	</g>
	<g id="HNsdUi.tif" class="st1">
	</g>
	<g id="dNlGnF_00000028293324644571429640000002022539703638192515_" class="st1">
		
			<image style="overflow:visible;" width="164" height="106" id="dNlGnF" xlink:href="C1B6E402D8A81137.jpg"  transform="matrix(0.2667 0 0 0.2667 -9.965780e-03 -1.070484e-02)">
		</image>
	</g>
</g>
<g id="Ebene_4">
	<path class="st4" d="M-13.3,31"/>
	<rect x="0" y="0" class="st5" width="14.7" height="28.4"/>
	<rect x="14.7" y="0" class="st6" width="14.7" height="28.4"/>
	<rect x="29" y="0" class="st7" width="14.7" height="28.4"/>
</g>
</svg>
