<?xml version="1.0" encoding="utf-8"?>
<!-- Generator: Adobe Illustrator 27.5.0, SVG Export Plug-In . SVG Version: 6.00 Build 0)  -->
<svg version="1.1" xmlns="http://www.w3.org/2000/svg" xmlns:xlink="http://www.w3.org/1999/xlink" x="0px" y="0px"
	 viewBox="0 0 28.3 28.3" style="enable-background:new 0 0 28.3 28.3;" xml:space="preserve">
<style type="text/css">
	.st0{display:none;}
	.st1{display:inline;}
	.st2{display:inline;fill:#1D1D1B;}
	.st3{fill:none;stroke:#1D1D1B;stroke-width:0.75;stroke-miterlimit:10;}
	.st4{fill:#1D1D1B;}
</style>
<g id="Ebene_2" class="st0">
	<g id="of0N4N.tif" class="st1">
		
			<image style="overflow:visible;" width="42" height="31" id="Layer_0_00000147900737044403381990000006646543667328851096_" xlink:href="8693CF6A57BC81DF.png"  transform="matrix(0.7023 0 0 0.7023 -0.5719 2.0926)">
		</image>
	</g>
</g>
<g id="Ebene_1" class="st0">
	<g id="Ebene_1_00000032643367200088823770000015364641583177854107_">
		
			<image style="display:inline;overflow:visible;enable-background:new    ;" width="922" height="180" xlink:href="../../../../../../private/var/folders/tf/bsct8sbd12936hjd4qbt9tvh0000gn/T/TemporaryItems/NSIRD_screencaptureui_h6T7zc/Bildschirmfoto 2023-05-21 um 11.03.51.png"  transform="matrix(0.2988 0 0 0.2988 -18.9543 -13.6385)">
		</image>
	</g>
	<g id="Ebene_2_00000000911966883495044790000007211877891964789668_">
		<path class="st2" d="M3.3,24.9h22.5c0,0-0.7-5.5-6.8-6.6c-0.7,0.2-4.7,2.2-8.4,0C9.4,18.6,4,20,3.3,24.9z"/>
		<circle class="st2" cx="14.6" cy="10.6" r="6.8"/>
	</g>
	<g id="Ebene_3">
		<g class="st1">
			<g>
				<polygon class="st3" points="27.4,2.5 27.4,23 13.9,25.8 1.4,23 1.4,2.5 13.9,5.1 				"/>
				<line class="st3" x1="13.9" y1="5.1" x2="13.9" y2="25.4"/>
			</g>
			<line class="st3" x1="15.4" y1="7.9" x2="25.9" y2="5.7"/>
			<line class="st3" x1="15.3" y1="10.1" x2="25.9" y2="8"/>
			<line class="st3" x1="15.3" y1="12.4" x2="25.9" y2="10.2"/>
			<line class="st3" x1="15.3" y1="14.6" x2="25.9" y2="12.5"/>
			<line class="st3" x1="15.3" y1="16.9" x2="25.9" y2="14.7"/>
		</g>
	</g>
	<g id="_x37_FUYKR.tif" class="st1">
		
			<image style="overflow:visible;" width="664" height="806" id="Layer_0" xlink:href="8693CF6A57BC81E3.png"  transform="matrix(3.535534e-02 0 0 3.535534e-02 2.412 -9.820357e-02)">
		</image>
	</g>
</g>
<g id="Ebene_3_00000165204187520909872760000006493392834140292254_">
	<circle class="st4" cx="14" cy="12" r="4.1"/>
	<path class="st4" d="M17.7,9.3c0,0,0-0.1,0-0.2c0.2-0.2,0.8-1,2.4-1.1c2.4-0.2,4.3,1.9,4.3,4.1s-1.9,4.2-4.3,3.9
		c-1.4-0.2-2.2-1-2.4-1.2c0,0,0-0.1,0-0.2C18.1,14.2,19.6,11.8,17.7,9.3z"/>
	<path class="st4" d="M10.4,14.7C10.4,14.7,10.4,14.7,10.4,14.7C10.3,15,9.7,15.8,8,15.9c-2.4,0.2-4.3-1.9-4.3-4.1S5.6,7.6,8,7.9
		c1.3,0.2,2.1,0.9,2.3,1.2c0.1,0.1,0.1,0.2,0,0.3C9.9,10,8.6,12.2,10.4,14.7z"/>
	<path class="st4" d="M7.2,16.5c0.3,0,2.4,0,3.6-1.2c0,0,0.1,0,0.1,0c0.3,0.2,1.6,1.6,3.7,1.2c0,0,0.1,0,0.1,0
		c0.1,0.7,0.8,4.7-3.6,5.1c0,0-0.1,0-0.1,0C10.2,21.6,6.3,21.3,7.2,16.5C7.1,16.5,7.2,16.5,7.2,16.5z"/>
	<path class="st4" d="M10.5,22.1c0.6,0,2.3-0.1,3.4-1c0.1-0.1,0.1-0.1,0.2,0c0.4,0.3,1.6,1.3,3.5,1c0.1,0,0.2,0,0.2,0.1
		c0.2,0.8,0.6,4-3.6,4.4c0,0-0.1,0-0.1,0c-0.6,0-4.5-0.2-3.8-4.3C10.3,22.2,10.4,22.1,10.5,22.1z"/>
	<path class="st4" d="M15.2,16.4c0.1,0.4,0.7,2.1-0.7,4c0,0,0,0.1,0,0.1c0.7,0.5,3.2,2.3,5.7-0.2c0.4-0.7,1.4-1.7,0.8-3.8
		c0,0,0,0,0,0c-0.3,0-2.1,0.2-3.6-1.2c0,0-0.1,0-0.1,0C16.9,15.4,15.8,16.3,15.2,16.4C15.2,16.3,15.2,16.4,15.2,16.4z"/>
	<path class="st4" d="M10.6,2.6c0,0,2.3,1.9,2.6,4.9c0.3,0,1-0.1,1.1,0c0-0.9,0.1-4.4-1.4-6.6c-0.1-0.1-0.2-0.2-0.4-0.1
		c-0.1,0.1-1.9,1.5-1.9,1.5S10.5,2.4,10.6,2.6z"/>
</g>
</svg>
